<svg width="164" height="36" viewBox="0 0 164 36" xmlns="http://www.w3.org/2000/svg"><path d="M14.128 1.315c4.64 0 8.512 1.616 11.616 4.848 3.136 3.2 4.704 7.184 4.704 11.952s-1.568 8.768-4.704 12c-3.104 3.2-6.976 4.8-11.616 4.8H.688v-33.6h13.44zm0 26.208c2.656 0 4.8-.848 6.432-2.544 1.664-1.73 2.496-4.017 2.496-6.865s-.832-5.12-2.496-6.816c-1.632-1.73-3.776-2.593-6.432-2.593h-5.76v18.816h5.76zM42.446 27.523h13.44v7.392h-21.12v-33.6h20.88v7.392h-13.2v5.568h12v7.296h-12v5.953zM69.233 34.915L58.29 1.315h8.4l7.44 24.72 7.44-24.72h8.4l-10.945 33.6h-9.792zM93.015 1.315h7.68v33.6h-7.68v-33.6zM122.658 35.587c-5.024 0-9.2-1.664-12.528-4.992-3.296-3.36-4.944-7.52-4.944-12.48 0-4.96 1.648-9.104 4.944-12.432 3.328-3.36 7.504-5.04 12.528-5.04 3.008 0 5.792.704 8.352 2.112 2.56 1.376 4.576 3.264 6.048 5.664l-6.624 3.84c-.736-1.313-1.792-2.32-3.168-3.025-1.376-.736-2.912-1.104-4.608-1.104-2.976 0-5.36.913-7.152 2.737-1.76 1.824-2.64 4.24-2.64 7.248s.88 5.424 2.64 7.248c1.792 1.824 4.176 2.736 7.152 2.736 1.696 0 3.232-.37 4.608-1.105 1.408-.736 2.464-1.744 3.168-3.024l6.624 3.84c-1.44 2.4-3.44 4.305-6 5.713-2.56 1.376-5.36 2.064-8.4 2.064zM149.604 27.523h13.44v7.392h-21.12v-33.6h20.88v7.392h-13.2v5.568h12v7.296h-12v5.953z"/></svg>